<svg width="924" height="166" viewBox="0 0 462 83" fill="none" xmlns="http://www.w3.org/2000/svg">
<path d="M119.596 81H66.29V76.6127L71.5548 76.1739C77.039 75.7352 77.4777 72.335 77.4777 57.6374V25.3905C77.4777 10.6929 77.039 7.29271 71.5548 6.85398L66.29 6.41525V2.02791H98.537V6.41525L92.1753 6.85398C86.6912 7.18303 86.2524 9.59607 86.2524 24.2936V69.2639C86.2524 74.419 87.3493 76.1739 94.369 76.503C112.796 77.3804 115.428 67.3992 117.293 62.2441H121.68L119.596 81Z" fill="#FFFFFF"/>
<path d="M142.98 82.3162C134.754 82.3162 128.502 76.0642 128.502 65.8637V30.9843H119.837V26.1583H136.838V63.4506C136.838 70.0316 139.58 75.2965 147.038 75.2965C152.084 75.2965 157.568 71.4575 162.614 66.6315V30.9843H152.523V26.1583H170.73V68.3864C170.73 73.2125 172.156 74.5287 175.995 74.8577L178.737 75.0771V78.587L162.614 81.8775V72.2253C158.336 76.0642 151.206 82.3162 142.98 82.3162Z" fill="#FFFFFF"/>
<path d="M180.32 77.1611C185.365 76.503 187.998 75.5158 187.998 70.1413V38.7719C187.998 33.9458 186.572 32.6296 182.733 32.3005L179.991 32.0812V28.5713L196.114 25.2808V34.6039C200.392 29.9972 206.315 24.8421 213.554 24.8421C219.477 24.8421 224.851 28.3519 226.716 34.6039C230.993 29.9972 237.026 24.8421 244.265 24.8421C254.904 24.8421 258.305 33.2877 258.305 41.2946V76.2836L258.414 76.3933H266.641V81H242.291V77.1611C247.336 76.503 249.969 75.5158 249.969 70.1413V43.3786C249.969 36.7976 247.556 31.8618 241.304 31.8618C236.258 31.8618 230.993 35.1523 227.155 39.6493V76.3933H234.832V81H211.25V77.1611C216.296 76.503 218.928 75.5158 218.928 70.1413V43.3786C218.928 36.7976 216.844 31.8618 210.592 31.8618C205.328 31.8618 200.063 35.3717 196.114 40.1977V76.3933H203.792V81H180.32V77.1611Z" fill="#FFFFFF"/>
<path d="M295.861 82.3162C279.957 82.3162 269.647 69.7026 269.647 53.5791C269.647 38.6622 279.957 24.8421 295.861 24.8421C311.655 24.8421 321.966 37.5653 321.966 53.5791C321.966 68.6058 311.655 82.3162 295.861 82.3162ZM278.75 49.5208C278.75 63.9991 286.538 77.5998 298.055 77.5998C307.268 77.5998 312.972 68.6058 312.972 58.2955C312.972 43.927 305.513 29.5585 293.996 29.5585C283.796 29.5585 278.75 38.9912 278.75 49.5208Z" fill="#FFFFFF"/>
<path d="M326.956 77.1611C332.002 76.503 334.634 75.5158 334.634 70.1413V38.7719C334.634 33.9458 333.208 32.6296 329.369 32.3005L326.627 32.0812V28.5713L342.751 25.2808V34.9329C347.028 31.094 354.267 24.8421 362.494 24.8421C371.049 24.8421 377.301 31.094 377.301 41.2946V76.3933H385.527V81H361.287V77.1611C366.333 76.503 368.965 75.5158 368.965 70.1413V43.7076C368.965 37.1266 366.442 31.8618 358.655 31.8618C353.609 31.8618 347.796 35.7007 342.751 40.5268V76.3933H351.306V81H326.956V77.1611Z" fill="#FFFFFF"/>
<path d="M387.528 77.1611C392.573 76.503 395.206 75.5158 395.206 70.1413V38.7719C395.206 33.9458 393.78 32.6296 389.941 32.3005L387.199 32.0812V28.5713L403.322 25.2808V76.3933H411.658V81H387.528V77.1611ZM392.793 7.95082C392.793 4.33126 395.645 1.47949 399.264 1.47949C402.774 1.47949 405.735 4.44095 405.735 7.95082C405.735 11.6801 402.774 14.4221 399.264 14.4221C395.645 14.4221 392.793 11.6801 392.793 7.95082Z" fill="#FFFFFF"/>
<path d="M439.275 82.5356C426.113 82.5356 415.694 71.3478 415.694 55.1147C415.694 39.43 426.881 24.6227 442.018 24.6227C455.618 24.6227 461.432 33.5071 461.432 41.1849C461.432 44.9141 458.689 47.8756 455.289 47.8756C451.779 47.8756 449.257 45.3529 449.257 42.0624C449.257 39.759 450.463 38.1138 450.573 36.3588C451.012 30.5456 446.295 28.681 441.689 28.681C431.598 28.681 424.139 38.3331 424.139 50.7274C424.139 64.2184 431.817 74.6384 443.114 74.5287C451.56 74.419 456.276 69.2639 458.909 66.083L461.87 67.838C457.812 76.1739 448.599 82.5356 439.275 82.5356Z" fill="#FFFFFF"/>
<path fill-rule="evenodd" clip-rule="evenodd" d="M30.3096 0.309509H15.3096V0.309998H0.30957V49.69H30.3096V49.6905H49.6905V34.6905V30.3095V19.6905V15.3095V0.309509H34.6905H30.3096ZM30.3096 45.31V34.6905H15.3096V34.69V19.6905V15.3095V4.69H4.68957V45.31H30.3096ZM45.3096 30.3095H34.6905V19.6905L45.3096 19.6905V30.3095ZM30.3096 19.6905V30.3095H19.6905V19.6905L30.3096 19.6905ZM34.6905 34.6905H45.3096V45.3095H34.6905V34.6905ZM34.6905 15.3095H45.3096V4.69046H34.6905V15.3095ZM19.6905 15.3095H30.3096V4.69046H19.6905V15.3095Z" fill="#FFFFFF"/>
</svg>
